<?xml version="1.0" encoding="UTF-8"?>
<!DOCTYPE svg PUBLIC "-//W3C//DTD SVG 1.1//EN" "http://www.w3.org/Graphics/SVG/1.1/DTD/svg11.dtd">
<svg xmlns="http://www.w3.org/2000/svg" version="1.1" width="512px" height="512px" style="shape-rendering:geometricPrecision; text-rendering:geometricPrecision; image-rendering:optimizeQuality; fill-rule:evenodd; clip-rule:evenodd" xmlns:xlink="http://www.w3.org/1999/xlink">
<g><path style="opacity:0.999" fill="#fbfbfb" d="M 62.5,-0.5 C 191.167,-0.5 319.833,-0.5 448.5,-0.5C 450.607,0.468218 452.941,0.801552 455.5,0.5C 465.527,3.28926 474.86,7.62259 483.5,13.5C 490.914,19.5779 497.247,26.5779 502.5,34.5C 503.853,37.2054 505.186,39.8721 506.5,42.5C 508.198,47.9226 509.865,53.256 511.5,58.5C 511.5,189.833 511.5,321.167 511.5,452.5C 508.586,463.898 503.92,474.565 497.5,484.5C 493.167,488.833 488.833,493.167 484.5,497.5C 474.565,503.92 463.898,508.586 452.5,511.5C 321.167,511.5 189.833,511.5 58.5,511.5C 53.256,509.865 47.9226,508.198 42.5,506.5C 39.8721,505.186 37.2054,503.853 34.5,502.5C 26.5779,497.247 19.5779,490.914 13.5,483.5C 7.62259,474.86 3.28926,465.527 0.5,455.5C 0.801552,452.941 0.468218,450.607 -0.5,448.5C -0.5,319.833 -0.5,191.167 -0.5,62.5C 0.772996,56.1649 2.43966,49.8316 4.5,43.5C 6.6744,40.4846 8.34107,37.1513 9.5,33.5C 13.136,29.3549 16.636,25.0216 20,20.5C 24.6888,16.9692 29.1888,13.3025 33.5,9.5C 37.1513,8.34107 40.4846,6.6744 43.5,4.5C 49.8316,2.43966 56.1649,0.772996 62.5,-0.5 Z"/></g>
<g><path style="opacity:0.004" fill="#fbfbfc" d="M 455.5,-0.5 C 455.833,-0.5 456.167,-0.5 456.5,-0.5C 456.315,0.170143 455.981,0.170143 455.5,-0.5 Z"/></g>
<g><path style="opacity:0.004" fill="#fbfcfb" d="M 43.5,4.5 C 42.8333,3.16667 42.8333,3.16667 43.5,4.5 Z"/></g>
<g><path style="opacity:0.004" fill="#fbfcfb" d="M 33.5,9.5 C 32.8333,8.16667 32.8333,8.16667 33.5,9.5 Z"/></g>
<g><path style="opacity:0.004" fill="#fbfcfb" d="M 483.5,12.5 C 484.833,13.1667 484.833,13.1667 483.5,12.5 Z"/></g>
<g><path style="opacity:0.004" fill="#fbfcfb" d="M 9.5,33.5 C 8.83333,32.1667 8.83333,32.1667 9.5,33.5 Z"/></g>
<g><path style="opacity:0.004" fill="#fbfcfb" d="M 502.5,33.5 C 503.833,34.1667 503.833,34.1667 502.5,33.5 Z"/></g>
<g><path style="opacity:0.004" fill="#fbfcfb" d="M 506.5,41.5 C 507.833,42.1667 507.833,42.1667 506.5,41.5 Z"/></g>
<g><path style="opacity:0.004" fill="#fbfcfb" d="M 4.5,43.5 C 3.83333,42.1667 3.83333,42.1667 4.5,43.5 Z"/></g>
<g><path style="opacity:1" fill="#151411" d="M 201.5,127.5 C 218.264,127.08 224.098,134.746 219,150.5C 212.178,157.432 204.678,158.266 196.5,153C 189.834,142.763 191.5,134.263 201.5,127.5 Z"/></g>
<g><path style="opacity:1" fill="#0d0d0c" d="M 421.5,172.5 C 418.421,172.74 415.421,172.407 412.5,171.5C 411.579,173.031 411.912,174.365 413.5,175.5C 418.057,186.187 418.723,197.187 415.5,208.5C 415.833,209.167 416.167,209.833 416.5,210.5C 428.035,216.229 439.701,221.562 451.5,226.5C 451.833,242.514 451.499,258.514 450.5,274.5C 434.847,282.244 419.013,289.577 403,296.5C 396.194,293.43 389.527,290.097 383,286.5C 375.333,296.167 367.667,305.833 360,315.5C 360.044,317.279 360.711,318.945 362,320.5C 370.242,330.653 378.242,340.986 386,351.5C 387.623,356.696 385.79,359.696 380.5,360.5C 378.088,360.594 376.255,359.594 375,357.5C 367.358,346.862 359.358,336.528 351,326.5C 342.055,337.544 333.222,348.711 324.5,360C 316.754,360.923 314.254,357.757 317,350.5C 325.9,339.271 334.4,327.771 342.5,316C 335.732,306.227 328.565,296.727 321,287.5C 317.318,278.187 320.151,275.02 329.5,278C 336.724,287.629 344.057,297.129 351.5,306.5C 358.186,298.475 364.519,290.141 370.5,281.5C 365.672,277.919 360.672,274.585 355.5,271.5C 338.176,270.667 320.843,270.167 303.5,270C 302.353,262.58 302.187,255.08 303,247.5C 303.671,246.748 304.504,246.414 305.5,246.5C 322.167,246.5 338.833,246.5 355.5,246.5C 355.806,243.615 355.473,240.948 354.5,238.5C 330.181,228.894 319.347,210.894 322,184.5C 330.101,157.523 348.268,145.023 376.5,147C 382.668,148.334 388.668,150.168 394.5,152.5C 394.954,149.86 396.121,147.527 398,145.5C 397.698,140.348 399.198,135.848 402.5,132C 405.81,129.932 408.976,130.098 412,132.5C 416.103,130.15 420.269,129.983 424.5,132C 425.872,133.242 426.872,134.742 427.5,136.5C 437.148,139.544 438.981,145.211 433,153.5C 432.94,158.39 431.94,163.057 430,167.5C 427.687,170.072 424.854,171.739 421.5,172.5 Z"/></g>
<g><path style="opacity:1" fill="#e6ca5a" d="M 202.5,131.5 C 214.18,131.002 218.68,136.335 216,147.5C 208.72,154.714 202.387,154.047 197,145.5C 195.268,139.314 197.101,134.647 202.5,131.5 Z"/></g>
<g><path style="opacity:1" fill="#f1eff0" d="M 404.5,133.5 C 409.119,134.127 411.119,136.794 410.5,141.5C 411.675,141.719 412.675,141.386 413.5,140.5C 413.914,134.572 416.914,132.406 422.5,134C 423.034,137.398 423.034,140.898 422.5,144.5C 425.028,143.977 427.361,142.977 429.5,141.5C 430.442,141.608 431.275,141.941 432,142.5C 432.938,145.88 432.271,148.88 430,151.5C 430.045,156.43 429.045,161.097 427,165.5C 424.487,167.923 421.487,169.256 418,169.5C 411.28,168.374 405.28,165.708 400,161.5C 399.094,159.256 398.594,156.923 398.5,154.5C 401.224,147.688 403.224,140.688 404.5,133.5 Z"/></g>
<g><path style="opacity:1" fill="#080808" d="M 93.5,143.5 C 103.493,141.324 111.326,144.324 117,152.5C 121.416,160.333 126.082,168 131,175.5C 136.585,166.665 141.919,157.665 147,148.5C 152.269,143.755 158.436,142.255 165.5,144C 173.502,146.003 179.002,150.836 182,158.5C 182.667,183.833 182.667,209.167 182,234.5C 177.837,238.747 174.171,238.414 171,233.5C 170.667,209.167 170.333,184.833 170,160.5C 167.972,156.866 164.806,155.2 160.5,155.5C 158.9,155.551 157.4,155.884 156,156.5C 149.543,167.917 142.71,179.084 135.5,190C 131.091,191.262 127.257,190.428 124,187.5C 117.876,176.749 111.376,166.249 104.5,156C 98.4884,154.225 93.6551,155.725 90,160.5C 89.6667,185.167 89.3333,209.833 89,234.5C 85.952,238.01 82.6187,238.343 79,235.5C 77.3531,210.921 77.0198,186.254 78,161.5C 80.4985,153.17 85.6651,147.17 93.5,143.5 Z"/></g>
<g><path style="opacity:1" fill="#080809" d="M 254.5,181.5 C 260.13,180.708 265.797,180.375 271.5,180.5C 280.469,181.152 287.469,185.152 292.5,192.5C 292.56,193.043 292.893,193.376 293.5,193.5C 294.815,188.014 294.815,182.68 293.5,177.5C 291.537,166.87 285.203,160.537 274.5,158.5C 272.19,157.836 269.69,157.503 267,157.5C 263.195,157.304 259.695,157.97 256.5,159.5C 252.577,160.795 248.91,162.628 245.5,165C 241.407,165.428 238.74,163.594 237.5,159.5C 237.856,156.312 239.523,154.145 242.5,153C 258.015,144.786 273.681,144.452 289.5,152C 297.858,157.698 303.025,165.531 305,175.5C 305.667,195.167 305.667,214.833 305,234.5C 300.837,238.747 297.171,238.414 294,233.5C 293.667,231.5 293.333,229.5 293,227.5C 281.689,239.381 268.189,242.881 252.5,238C 238.043,230.589 231.877,218.756 234,202.5C 237.688,192.313 244.521,185.313 254.5,181.5 Z"/></g>
<g><path style="opacity:1" fill="#cb879f" d="M 409.5,146.5 C 422.658,145.642 426.991,151.309 422.5,163.5C 420.902,164.485 419.235,164.651 417.5,164C 414.16,160.049 409.827,158.382 404.5,159C 402.016,156.716 401.849,154.216 404,151.5C 405.812,149.7 407.645,148.033 409.5,146.5 Z"/></g>
<g><path style="opacity:1" fill="#a5a6a5" d="M 374.5,158.5 C 369.13,158.392 363.797,158.725 358.5,159.5C 361.356,157.994 364.523,157.328 368,157.5C 370.361,157.504 372.527,157.837 374.5,158.5 Z"/></g>
<g><path style="opacity:1" fill="#b4b4b3" d="M 274.5,158.5 C 268.464,158.36 262.464,158.693 256.5,159.5C 259.695,157.97 263.195,157.304 267,157.5C 269.69,157.503 272.19,157.836 274.5,158.5 Z"/></g>
<g><path style="opacity:1" fill="#f7f7f7" d="M 374.5,158.5 C 398.776,164.376 409.11,179.709 405.5,204.5C 402.689,204.174 400.022,203.341 397.5,202C 396.126,199.417 394.626,196.917 393,194.5C 388.075,201.347 382.908,208.014 377.5,214.5C 370.948,217.275 364.281,219.775 357.5,222C 356.027,222.71 355.36,223.876 355.5,225.5C 340.268,219.733 332.601,208.566 332.5,192C 333.949,175.385 342.616,164.552 358.5,159.5C 363.797,158.725 369.13,158.392 374.5,158.5 Z"/></g>
<g><path style="opacity:1" fill="#141414" d="M 204.5,161.5 C 208.192,160.971 211.358,161.971 214,164.5C 214.667,187.5 214.667,210.5 214,233.5C 209.819,238.769 205.819,238.769 202,233.5C 201.333,210.5 201.333,187.5 202,164.5C 203.045,163.627 203.878,162.627 204.5,161.5 Z"/></g>
<g><path style="opacity:1" fill="#99999a" d="M 421.5,172.5 C 418.523,172.902 415.857,173.902 413.5,175.5C 411.912,174.365 411.579,173.031 412.5,171.5C 415.421,172.407 418.421,172.74 421.5,172.5 Z"/></g>
<g><path style="opacity:1" fill="#3b3a3c" d="M 271.5,180.5 C 265.797,180.375 260.13,180.708 254.5,181.5C 257.526,179.981 260.859,179.315 264.5,179.5C 267.025,179.503 269.359,179.837 271.5,180.5 Z"/></g>
<g><path style="opacity:1" fill="#525252" d="M 293.5,177.5 C 294.815,182.68 294.815,188.014 293.5,193.5C 292.893,193.376 292.56,193.043 292.5,192.5C 293.487,187.695 293.821,182.695 293.5,177.5 Z"/></g>
<g><path style="opacity:1" fill="#151515" d="M 351.5,188.5 C 356.747,188.64 357.747,190.806 354.5,195C 353.216,195.684 352.049,195.517 351,194.5C 350.322,192.402 350.489,190.402 351.5,188.5 Z"/></g>
<g><path style="opacity:1" fill="#212021" d="M 384.5,188.5 C 390.555,187.942 391.888,190.109 388.5,195C 383.791,195.082 382.458,192.915 384.5,188.5 Z"/></g>
<g><path style="opacity:1" fill="#f8f8f8" d="M 258.5,191.5 C 270.728,188.871 279.895,192.871 286,203.5C 287.318,223.174 278.152,231.341 258.5,228C 247.871,223.244 243.705,215.078 246,203.5C 248.769,197.895 252.936,193.895 258.5,191.5 Z"/></g>
<g><path style="opacity:1" fill="#cf869f" d="M 343.5,199.5 C 348.976,199.636 350.976,202.303 349.5,207.5C 341.79,209.123 339.79,206.457 343.5,199.5 Z"/></g>
<g><path style="opacity:1" fill="#222222" d="M 362.5,200.5 C 363.5,200.5 364.5,200.5 365.5,200.5C 364.842,204.677 366.508,206.177 370.5,205C 371.772,203.693 372.772,202.193 373.5,200.5C 374.699,204.661 373.032,206.994 368.5,207.5C 364.35,207.016 362.35,204.683 362.5,200.5 Z"/></g>
<g><path style="opacity:1" fill="#dcc456" d="M 398.5,218.5 C 398.631,219.376 398.298,220.043 397.5,220.5C 395.929,219.691 394.262,219.357 392.5,219.5C 389.06,217.945 385.727,216.112 382.5,214C 385.667,210.167 388.833,206.333 392,202.5C 395.429,207.28 397.596,212.613 398.5,218.5 Z"/></g>
<g><path style="opacity:1" fill="#e2ca5c" d="M 399.5,207.5 C 408.707,211.102 417.707,215.269 426.5,220C 420.24,222.589 413.907,225.089 407.5,227.5C 404.285,221.068 401.618,214.401 399.5,207.5 Z"/></g>
<g><path style="opacity:1" fill="#b7a351" d="M 398.5,218.5 C 399.914,220.044 400.247,221.711 399.5,223.5C 396.941,222.392 394.608,221.059 392.5,219.5C 394.262,219.357 395.929,219.691 397.5,220.5C 398.298,220.043 398.631,219.376 398.5,218.5 Z"/></g>
<g><path style="opacity:1" fill="#c48092" d="M 376.5,218.5 C 384.461,219.809 391.794,222.809 398.5,227.5C 392.428,230.471 386.094,232.305 379.5,233C 374.14,230.657 369.14,227.824 364.5,224.5C 368.481,222.295 372.481,220.295 376.5,218.5 Z"/></g>
<g><path style="opacity:1" fill="#79b885" d="M 430.5,222.5 C 435.329,223.909 439.996,225.909 444.5,228.5C 438.491,231.45 432.324,234.117 426,236.5C 421.41,234.792 417.243,232.458 413.5,229.5C 419.338,227.339 425.004,225.005 430.5,222.5 Z"/></g>
<g><path style="opacity:1" fill="#77ba86" d="M 402.5,230.5 C 408.323,232.406 413.99,234.906 419.5,238C 413.843,241.219 407.843,243.219 401.5,244C 396.674,241.754 392.008,239.254 387.5,236.5C 392.59,234.476 397.59,232.476 402.5,230.5 Z"/></g>
<g><path style="opacity:1" fill="#83c291" d="M 362.5,228.5 C 367.693,230.928 372.693,233.595 377.5,236.5C 377.829,250.677 377.496,264.677 376.5,278.5C 371.074,276.024 365.741,273.358 360.5,270.5C 359.851,256.127 360.518,242.127 362.5,228.5 Z"/></g>
<g><path style="opacity:1" fill="#28442e" d="M 377.5,236.5 C 378.826,250.672 378.826,265.006 377.5,279.5C 376.893,279.376 376.56,279.043 376.5,278.5C 377.496,264.677 377.829,250.677 377.5,236.5 Z"/></g>
<g><path style="opacity:1" fill="#e8cd5e" d="M 383.5,239.5 C 389.36,242.262 395.026,245.262 400.5,248.5C 400.829,262.677 400.496,276.677 399.5,290.5C 393.64,287.738 387.974,284.738 382.5,281.5C 382.171,267.323 382.504,253.323 383.5,239.5 Z"/></g>
<g><path style="opacity:1" fill="#c2c1c2" d="M 354.5,238.5 C 355.473,240.948 355.806,243.615 355.5,246.5C 338.833,246.5 322.167,246.5 305.5,246.5C 321.658,245.504 337.991,245.17 354.5,245.5C 354.5,243.167 354.5,240.833 354.5,238.5 Z"/></g>
<g><path style="opacity:1" fill="#764e5a" d="M 444.5,233.5 C 445.209,232.596 446.209,232.263 447.5,232.5C 447.829,246.01 447.496,259.344 446.5,272.5C 447.148,259.124 446.481,246.124 444.5,233.5 Z"/></g>
<g><path style="opacity:1" fill="#2694ce" d="M 407.5,290.5 C 405.518,276.873 404.851,262.873 405.5,248.5C 410.779,245.618 416.446,243.285 422.5,241.5C 423.833,255.5 423.833,269.5 422.5,283.5C 417.289,285.608 412.289,287.942 407.5,290.5 Z"/></g>
<g><path style="opacity:1" fill="#141414" d="M 68.5,248.5 C 74.1209,247.674 79.1209,249.007 83.5,252.5C 89.4462,249.225 94.6129,250.225 99,255.5C 100.215,260.051 100.881,264.718 101,269.5C 110.017,282.313 107.851,292.813 94.5,301C 90.5841,302.102 86.5841,302.769 82.5,303C 69.3117,309.98 59.4783,306.813 53,293.5C 52.6667,288.833 52.3333,284.167 52,279.5C 48.5296,273.744 47.8629,267.744 50,261.5C 53.0931,257.205 57.2597,255.538 62.5,256.5C 63.3453,252.985 65.3453,250.319 68.5,248.5 Z"/></g>
<g><path style="opacity:1" fill="#080808" d="M 133.5,248.5 C 148.504,248.333 163.504,248.5 178.5,249C 200.18,257.21 206.347,272.043 197,293.5C 194.994,296.672 192.494,299.338 189.5,301.5C 204.397,313.115 207.564,327.448 199,344.5C 193.59,352.462 186.09,357.295 176.5,359C 162.5,359.667 148.5,359.667 134.5,359C 133.667,358.167 132.833,357.333 132,356.5C 130.347,321.585 130.014,286.585 131,251.5C 132.045,250.627 132.878,249.627 133.5,248.5 Z"/></g>
<g><path style="opacity:1" fill="#e5cd61" d="M 312.5,250.5 C 319.5,250.5 326.5,250.5 333.5,250.5C 333.5,255.5 333.5,260.5 333.5,265.5C 326.5,265.5 319.5,265.5 312.5,265.5C 312.5,260.5 312.5,255.5 312.5,250.5 Z"/></g>
<g><path style="opacity:1" fill="#082232" d="M 405.5,248.5 C 404.851,262.873 405.518,276.873 407.5,290.5C 406.791,291.404 405.791,291.737 404.5,291.5C 404.171,276.99 404.504,262.657 405.5,248.5 Z"/></g>
<g><path style="opacity:1" fill="#298bbf" d="M 311.5,250.5 C 311.5,255.833 311.5,261.167 311.5,266.5C 309.5,266.5 307.5,266.5 305.5,266.5C 305.5,261.167 305.5,255.833 305.5,250.5C 307.5,250.5 309.5,250.5 311.5,250.5 Z"/></g>
<g><path style="opacity:1" fill="#cb8195" d="M 340.5,250.5 C 345.167,250.5 349.833,250.5 354.5,250.5C 354.5,255.5 354.5,260.5 354.5,265.5C 349.833,265.5 345.167,265.5 340.5,265.5C 340.5,260.5 340.5,255.5 340.5,250.5 Z"/></g>
<g><path style="opacity:1" fill="#f4f3f3" d="M 70.5,251.5 C 77.287,251.798 80.4537,255.465 80,262.5C 81.3561,263.38 82.8561,263.714 84.5,263.5C 84.0695,260.138 85.0695,257.305 87.5,255C 90.6363,253.959 93.1363,254.793 95,257.5C 95.3333,261.5 95.6667,265.5 96,269.5C 103.802,278.91 103.302,287.743 94.5,296C 89.9174,297.145 85.2508,297.811 80.5,298C 68.6046,304.631 60.7712,301.464 57,288.5C 56.7072,279.957 55.7072,271.624 54,263.5C 55.4659,261.675 57.2992,261.175 59.5,262C 61.5,263.333 63.1667,265 64.5,267C 66.6032,267.251 67.9365,266.251 68.5,264C 66.6862,259.312 67.3528,255.146 70.5,251.5 Z"/></g>
<g><path style="opacity:1" fill="#85c48b" d="M 333.5,250.5 C 335.833,250.5 338.167,250.5 340.5,250.5C 340.5,255.5 340.5,260.5 340.5,265.5C 340.5,265.833 340.5,266.167 340.5,266.5C 338.167,266.5 335.833,266.5 333.5,266.5C 333.5,266.167 333.5,265.833 333.5,265.5C 333.5,260.5 333.5,255.5 333.5,250.5 Z"/></g>
<g><path style="opacity:1" fill="#867a49" d="M 400.5,248.5 C 401.826,262.672 401.826,277.006 400.5,291.5C 399.893,291.376 399.56,291.043 399.5,290.5C 400.496,276.677 400.829,262.677 400.5,248.5 Z"/></g>
<g><path style="opacity:1" fill="#435e4a" d="M 362.5,228.5 C 360.518,242.127 359.851,256.127 360.5,270.5C 359.504,256.343 359.171,242.01 359.5,227.5C 360.791,227.263 361.791,227.596 362.5,228.5 Z"/></g>
<g><path style="opacity:1" fill="#cd8395" d="M 444.5,233.5 C 446.481,246.124 447.148,259.124 446.5,272.5C 440.618,275.024 434.785,277.69 429,280.5C 428.333,266.833 428.333,253.167 429,239.5C 434.056,237.204 439.222,235.204 444.5,233.5 Z"/></g>
<g><path style="opacity:1" fill="#9e6575" d="M 354.5,250.5 C 355.488,255.64 355.821,260.974 355.5,266.5C 350.5,266.5 345.5,266.5 340.5,266.5C 340.5,266.167 340.5,265.833 340.5,265.5C 345.167,265.5 349.833,265.5 354.5,265.5C 354.5,260.5 354.5,255.5 354.5,250.5 Z"/></g>
<g><path style="opacity:1" fill="#fafafb" d="M 177.5,261.5 C 185.441,263.608 189.441,268.775 189.5,277C 189.862,287.121 185.195,293.288 175.5,295.5C 164.833,295.5 154.167,295.5 143.5,295.5C 143.5,284.167 143.5,272.833 143.5,261.5C 154.833,261.5 166.167,261.5 177.5,261.5 Z"/></g>
<g><path style="opacity:1" fill="#aba463" d="M 311.5,250.5 C 311.833,250.5 312.167,250.5 312.5,250.5C 312.5,255.5 312.5,260.5 312.5,265.5C 319.5,265.5 326.5,265.5 333.5,265.5C 333.5,265.833 333.5,266.167 333.5,266.5C 326.167,266.5 318.833,266.5 311.5,266.5C 311.5,261.167 311.5,255.833 311.5,250.5 Z"/></g>
<g><path style="opacity:1" fill="#463c22" d="M 383.5,239.5 C 382.504,253.323 382.171,267.323 382.5,281.5C 381.174,267.328 381.174,252.994 382.5,238.5C 383.107,238.624 383.44,238.957 383.5,239.5 Z"/></g>
<g><path style="opacity:1" fill="#0b0b0b" d="M 251.5,265.5 C 264.485,264.775 276.818,267.275 288.5,273C 294.043,278.874 299.21,285.041 304,291.5C 315.074,318.382 308.574,339.882 284.5,356C 258.464,368.198 236.631,363.032 219,340.5C 209.032,322.473 209.032,304.473 219,286.5C 224.709,281.457 229.709,275.791 234,269.5C 235,269.833 236,270.167 237,270.5C 241.98,268.897 246.813,267.23 251.5,265.5 Z"/></g>
<g><path style="opacity:1" fill="#ce849a" d="M 73.5,269.5 C 83.2501,268.291 90.4167,271.958 95,280.5C 96.1861,285.476 94.3528,288.476 89.5,289.5C 81.8703,285.706 75.537,287.206 70.5,294C 67.4819,294.573 65.3152,293.406 64,290.5C 63.3333,286.833 63.3333,283.167 64,279.5C 66.6961,275.639 69.8627,272.306 73.5,269.5 Z"/></g>
<g><path style="opacity:1" fill="#f7f7f7" d="M 243.5,293.5 C 245.552,292.947 245.885,291.947 244.5,290.5C 244.076,287.646 243.076,284.979 241.5,282.5C 243.995,280.157 246.995,278.657 250.5,278C 260.044,276.881 269.378,277.714 278.5,280.5C 276.776,284.675 275.443,289.008 274.5,293.5C 278.281,293.974 281.448,295.641 284,298.5C 284.863,295.041 286.03,291.707 287.5,288.5C 300.022,302.048 301.855,317.048 293,333.5C 282.263,347.419 268.096,352.919 250.5,350C 228.882,342.378 219.715,327.211 223,304.5C 224.847,299.306 227.347,294.472 230.5,290C 231.167,289.333 231.833,289.333 232.5,290C 233.686,292.748 234.686,295.581 235.5,298.5C 237.887,296.311 240.553,294.644 243.5,293.5 Z"/></g>
<g><path style="opacity:1" fill="#cacaca" d="M 177.5,261.5 C 166.167,261.5 154.833,261.5 143.5,261.5C 143.5,272.833 143.5,284.167 143.5,295.5C 154.167,295.5 164.833,295.5 175.5,295.5C 164.679,296.495 153.679,296.828 142.5,296.5C 142.5,284.5 142.5,272.5 142.5,260.5C 154.345,260.172 166.012,260.505 177.5,261.5 Z"/></g>
<g><path style="opacity:1" fill="#686968" d="M 244.5,290.5 C 245.885,291.947 245.552,292.947 243.5,293.5C 244.11,292.609 244.443,291.609 244.5,290.5 Z"/></g>
<g><path style="opacity:1" fill="#141414" d="M 242.5,306.5 C 246.987,306.141 248.654,307.974 247.5,312C 245.527,312.495 243.527,312.662 241.5,312.5C 241.325,310.379 241.659,308.379 242.5,306.5 Z"/></g>
<g><path style="opacity:1" fill="#141414" d="M 273.5,306.5 C 278.386,305.405 280.052,307.072 278.5,311.5C 273.134,313.468 271.467,311.801 273.5,306.5 Z"/></g>
<g><path style="opacity:1" fill="#f6f6f6" d="M 142.5,309.5 C 154.838,309.333 167.171,309.5 179.5,310C 191.73,316.309 194.897,325.809 189,338.5C 186.548,341.821 183.382,344.321 179.5,346C 167.242,347.439 154.909,347.939 142.5,347.5C 142.5,334.833 142.5,322.167 142.5,309.5 Z"/></g>
<g><path style="opacity:1" fill="#878788" d="M 263.5,317.5 C 261.473,317.338 259.473,317.505 257.5,318C 258.056,318.383 258.389,318.883 258.5,319.5C 256.952,319.179 256.285,318.179 256.5,316.5C 259.059,316.198 261.393,316.532 263.5,317.5 Z"/></g>
<g><path style="opacity:1" fill="#212122" d="M 263.5,317.5 C 261.633,319.812 261.133,322.479 262,325.5C 263.699,326.406 265.533,326.739 267.5,326.5C 267.5,325.167 267.5,323.833 267.5,322.5C 268.5,322.5 269.5,322.5 270.5,322.5C 270.133,328.156 267.133,329.989 261.5,328C 260.5,326 259.5,326 258.5,328C 256.167,328.667 253.833,328.667 251.5,328C 249.464,326.181 249.297,324.347 251,322.5C 251.69,326.19 253.857,327.357 257.5,326C 258.423,323.959 258.756,321.792 258.5,319.5C 258.389,318.883 258.056,318.383 257.5,318C 259.473,317.505 261.473,317.338 263.5,317.5 Z"/></g>
<g><path style="opacity:1" fill="#d28fa8" d="M 281.5,319.5 C 289.543,319.003 291.21,321.836 286.5,328C 284.299,328.825 282.466,328.325 281,326.5C 280.297,324.071 280.463,321.738 281.5,319.5 Z"/></g>
<g><path style="opacity:1" fill="#141414" d="M 418.5,319.5 C 422.505,319.169 425.838,320.503 428.5,323.5C 436.451,319.643 441.451,321.977 443.5,330.5C 448.535,330.868 451.202,333.535 451.5,338.5C 447.591,345.673 444.758,353.34 443,361.5C 437.654,367.618 431.154,369.451 423.5,367C 416.814,364.441 410.981,360.608 406,355.5C 401.72,347.396 403.053,340.396 410,334.5C 410.8,328.222 413.633,323.222 418.5,319.5 Z"/></g>
<g><path style="opacity:1" fill="#d08ea5" d="M 233.5,319.5 C 240.486,319.331 242.153,322.164 238.5,328C 231.416,328.475 229.749,325.642 233.5,319.5 Z"/></g>
<g><path style="opacity:1" fill="#f0eeef" d="M 418.5,323.5 C 420.467,323.261 422.301,323.594 424,324.5C 424.497,327.146 424.664,329.813 424.5,332.5C 425.833,332.5 427.167,332.5 428.5,332.5C 429.004,326.819 432.004,324.319 437.5,325C 438.804,325.804 439.471,326.971 439.5,328.5C 438.778,330.944 437.778,333.278 436.5,335.5C 436.709,336.086 437.043,336.586 437.5,337C 440.117,336.765 442.617,335.932 445,334.5C 448.293,335.138 449.293,337.138 448,340.5C 443.379,345.955 440.712,352.289 440,359.5C 437.46,362.353 434.293,364.02 430.5,364.5C 424.099,361.971 417.766,359.138 411.5,356C 405.798,349.037 406.298,342.537 413,336.5C 414.388,331.909 416.221,327.575 418.5,323.5 Z"/></g>
<g><path style="opacity:1" fill="#171718" d="M 94.5,325.5 C 99.238,324.742 103.238,326.075 106.5,329.5C 110.193,329.793 113.36,331.127 116,333.5C 116.143,341.502 115.81,349.502 115,357.5C 113.5,361.667 110.667,364.5 106.5,366C 100.144,366.398 93.8107,366.065 87.5,365C 83.3971,362.955 80.5637,359.788 79,355.5C 78.9222,348.503 79.2555,341.503 80,334.5C 82.5607,330.25 86.394,328.417 91.5,329C 92.7101,327.961 93.7101,326.794 94.5,325.5 Z"/></g>
<g><path style="opacity:1" fill="#f1f0f1" d="M 96.5,328.5 C 98.4672,328.261 100.301,328.594 102,329.5C 102.497,332.146 102.664,334.813 102.5,337.5C 105.374,336.637 108.041,335.303 110.5,333.5C 112.611,334.212 113.611,335.712 113.5,338C 112.833,340.333 112.167,342.667 111.5,345C 114.996,354.846 111.83,361.013 102,363.5C 97.6251,362.139 93.1251,361.306 88.5,361C 86,359.833 84.1667,358 83,355.5C 82.727,348.11 83.227,340.777 84.5,333.5C 87.175,332.004 89.175,332.671 90.5,335.5C 91.6888,336.429 93.0222,336.762 94.5,336.5C 94.1072,333.487 94.7739,330.82 96.5,328.5 Z"/></g>
<g><path style="opacity:1" fill="#ce859c" d="M 420.5,338.5 C 430.102,336.451 435.769,340.118 437.5,349.5C 438.254,355.909 435.587,358.743 429.5,358C 425.711,352.689 420.544,350.189 414,350.5C 413.333,348.167 413.333,345.833 414,343.5C 415.965,341.45 418.132,339.783 420.5,338.5 Z"/></g>
<g><path style="opacity:1" fill="#ca869d" d="M 94.5,341.5 C 102.313,340.898 106.979,344.398 108.5,352C 108.414,356.749 106.08,358.415 101.5,357C 97.7771,353.906 93.9437,353.739 90,356.5C 86.1694,354.362 85.5028,351.362 88,347.5C 90.0627,345.266 92.2294,343.266 94.5,341.5 Z"/></g>
<g><path style="opacity:0.004" fill="#fbfcfb" d="M -0.5,455.5 C -0.166667,455.5 0.166667,455.5 0.5,455.5C 0.31468,456.17 -0.0186536,456.17 -0.5,455.5 Z"/></g>
<g><path style="opacity:0.004" fill="#fbfcfb" d="M 13.5,483.5 C 12.8333,484.167 12.8333,484.167 13.5,483.5 Z"/></g>
<g><path style="opacity:0.004" fill="#fbfcfb" d="M 497.5,484.5 C 498.833,485.167 498.833,485.167 497.5,484.5 Z"/></g>
<g><path style="opacity:0.004" fill="#fbfbfc" d="M 484.5,497.5 C 485.833,498.167 485.833,498.167 484.5,497.5 Z"/></g>
<g><path style="opacity:0.004" fill="#fbfcfb" d="M 34.5,502.5 C 33.8333,503.167 33.8333,503.167 34.5,502.5 Z"/></g>
<g><path style="opacity:0.004" fill="#fbfbfc" d="M 42.5,506.5 C 41.8333,507.167 41.8333,507.167 42.5,506.5 Z"/></g>
</svg>
