<?xml version="1.0" standalone="no"?>
 <!DOCTYPE svg PUBLIC "-//W3C//DTD SVG 1.1//EN" 
 "http://www.w3.org/Graphics/SVG/1.1/DTD/svg11.dtd"> 
<svg
  xmlns:svg="http://www.w3.org/2000/svg"
  xmlns="http://www.w3.org/2000/svg"
  xmlns:xlink="http://www.w3.org/1999/xlink"
  version="1.1"
  width="70.0024mm" height="59.9948mm" viewBox="0.0000 0.0000 70.0024 59.9948">
<title>SVG Image created as TheDiv.svg date 2024/04/11 22:22:23 </title>
  <desc>Image generated by Eeschema-SVG </desc>
<g style="fill:#000000; fill-opacity:1.0000;stroke:#000000; stroke-opacity:1.0000;
stroke-linecap:round; stroke-linejoin:round;"
 transform="translate(0 0) scale(1 1)">
</g>
<g style="fill:#000000; fill-opacity:0.0; 
stroke:#000000; stroke-width:0.1524; stroke-opacity:1; 
stroke-linecap:round; stroke-linejoin:round;">
</g>
<g style="fill:#000000; fill-opacity:0.0; 
stroke:#000000; stroke-width:0.2500; stroke-opacity:1; 
stroke-linecap:round; stroke-linejoin:round;">
</g>
<g style="fill:#000000; fill-opacity:0.0; 
stroke:#000000; stroke-width:0.1524; stroke-opacity:1; 
stroke-linecap:round; stroke-linejoin:round;">
<g >
</g>
<g style="fill:#A54B4B; fill-opacity:0.0; 
stroke:#A54B4B; stroke-width:0.1524; stroke-opacity:1; 
stroke-linecap:round; stroke-linejoin:round;">
<circle cx="46.4820" cy="26.0350" r="0.7620" /> 
</g>
<g style="fill:#A54B50; fill-opacity:0.0; 
stroke:#A54B50; stroke-width:0.1524; stroke-opacity:1; 
stroke-linecap:round; stroke-linejoin:round;">
<path d="M45.7200 26.0350
L43.1800 26.0350
" />
</g>
</g>
<g style="fill:#A54B50; fill-opacity:0.0; 
stroke:#A54B50; stroke-width:0.1524; stroke-opacity:1; 
stroke-linecap:round; stroke-linejoin:round;">
<g >
</g>
<g style="fill:#A54B4B; fill-opacity:0.0; 
stroke:#A54B4B; stroke-width:0.1524; stroke-opacity:1; 
stroke-linecap:round; stroke-linejoin:round;">
<circle cx="46.4820" cy="37.4650" r="0.7620" /> 
</g>
<g style="fill:#A54B50; fill-opacity:0.0; 
stroke:#A54B50; stroke-width:0.1524; stroke-opacity:1; 
stroke-linecap:round; stroke-linejoin:round;">
<path d="M45.7200 37.4650
L43.1800 37.4650
" />
</g>
</g>
<g style="fill:#A54B50; fill-opacity:0.0; 
stroke:#A54B50; stroke-width:0.1524; stroke-opacity:1; 
stroke-linecap:round; stroke-linejoin:round;">
<g >
</g>
<g style="fill:#A54B4B; fill-opacity:0.0; 
stroke:#A54B4B; stroke-width:0.1524; stroke-opacity:1; 
stroke-linecap:round; stroke-linejoin:round;">
</g>
<g style="fill:#FDFDFD; fill-opacity:0.0; 
stroke:#FDFDFD; stroke-width:0.1524; stroke-opacity:1; 
stroke-linecap:round; stroke-linejoin:round;">
</g>
<g style="fill:#FDFDFD; fill-opacity:1.0000; 
stroke:#FDFDFD; stroke-width:0.0000; stroke-opacity:1; 
stroke-linecap:round; stroke-linejoin:round;">
<circle cx="20.3200" cy="26.0350" r="2.5400" /> 
</g>
<g style="fill:#A54B4B; fill-opacity:1.0000; 
stroke:#A54B4B; stroke-width:0.0000; stroke-opacity:1; 
stroke-linecap:round; stroke-linejoin:round;">
</g>
<g style="fill:#A54B4B; fill-opacity:0.0; 
stroke:#A54B4B; stroke-width:0.1524; stroke-opacity:1; 
stroke-linecap:round; stroke-linejoin:round;">
<path style="fill:#A54B4B; fill-opacity:0.0; 
stroke:#A54B4B; stroke-width:0.1524; stroke-opacity:1; 
stroke-linecap:round; stroke-linejoin:round;fill:none"
d="M 19.0500,25.7810
21.5900,25.7810
" /> 
<path style="fill:#A54B4B; fill-opacity:0.0; 
stroke:#A54B4B; stroke-width:0.1524; stroke-opacity:1; 
stroke-linecap:round; stroke-linejoin:round;fill:none"
d="M 19.5580,26.2890
19.0500,26.2890
" /> 
<path style="fill:#A54B4B; fill-opacity:0.0; 
stroke:#A54B4B; stroke-width:0.1524; stroke-opacity:1; 
stroke-linecap:round; stroke-linejoin:round;fill:none"
d="M 20.5740,26.2890
20.0660,26.2890
" /> 
<path style="fill:#A54B4B; fill-opacity:0.0; 
stroke:#A54B4B; stroke-width:0.1524; stroke-opacity:1; 
stroke-linecap:round; stroke-linejoin:round;fill:none"
d="M 21.5900,26.2890
21.0820,26.2890
" /> 
</g>
<g style="fill:#A54B4B; fill-opacity:0.0; 
stroke:#A54B4B; stroke-width:0.2540; stroke-opacity:1; 
stroke-linecap:round; stroke-linejoin:round;">
<circle cx="20.3200" cy="26.0350" r="2.5400" /> 
</g>
<g style="fill:#A54B4B; fill-opacity:0.0; 
stroke:#A54B4B; stroke-width:0.1588; stroke-opacity:1; 
stroke-linecap:round; stroke-linejoin:round;">
<text x="20.3200" y="24.7650"
textLength="1.7948" font-size="1.6933" lengthAdjust="spacingAndGlyphs"
text-anchor="middle" opacity="0">+</text>
<g class="stroked-text"><desc>+</desc>
<path d="M19.8361 24.2254
L20.8038 24.2254
" />
<path d="M20.3199 24.7092
L20.3199 23.7416
" />
</g></g>
<g style="fill:#A54B50; fill-opacity:0.0; 
stroke:#A54B50; stroke-width:0.1588; stroke-opacity:1; 
stroke-linecap:round; stroke-linejoin:round;">
</g>
<g style="fill:#A54B50; fill-opacity:0.0; 
stroke:#A54B50; stroke-width:0.1524; stroke-opacity:1; 
stroke-linecap:round; stroke-linejoin:round;">
<path d="M20.3200 23.4950
L20.3200 20.9550
" />
<path d="M20.3200 28.5750
L20.3200 31.1150
" />
</g>
<g style="fill:#828282; fill-opacity:0.0; 
stroke:#828282; stroke-width:0.1524; stroke-opacity:1; 
stroke-linecap:round; stroke-linejoin:round;">
<text x="15.2283" y="27.0350"
textLength="2.5166" font-size="2.6666" lengthAdjust="spacingAndGlyphs"
text-anchor="middle" opacity="0">U_{i}</text>
<g class="stroked-text"><desc>U_{i}</desc>
</g>
<g style="fill:#828282; fill-opacity:1.0000; 
stroke:#828282; stroke-width:0.0000; stroke-opacity:1; 
stroke-linecap:round; stroke-linejoin:round;">
<path style="fill:#828282; fill-opacity:1.0000; 
stroke:#828282; stroke-width:0.0000; stroke-opacity:1; 
stroke-linecap:round; stroke-linejoin:round;fill-rule:evenodd;"
d="M 14.3383,24.9892
15.1252,24.9892
15.1101,25.0517
15.0881,25.0524
15.0673,25.0534
15.0477,25.0547
15.0234,25.0569
15.0013,25.0596
14.9814,25.0629
14.9595,25.0677
14.9376,25.0746
14.9189,25.0831
14.9012,25.0938
14.8846,25.1067
14.8689,25.1218
14.8543,25.1392
14.8497,25.1455
14.8383,25.1635
14.8291,25.1809
14.8197,25.2011
14.8102,25.2240
14.8030,25.2429
14.7957,25.2634
14.7884,25.2854
14.7810,25.3090
14.7735,25.3340
14.5830,25.9906
14.5768,26.0120
14.5709,26.0325
14.5654,26.0521
14.5577,26.0797
14.5507,26.1051
14.5444,26.1285
14.5388,26.1497
14.5340,26.1688
14.5287,26.1909
14.5238,26.2133
14.5224,26.2206
14.5185,26.2433
14.5152,26.2655
14.5123,26.2874
14.5100,26.3088
14.5082,26.3299
14.5069,26.3505
14.5061,26.3708
14.5058,26.3906
14.5063,26.4120
14.5077,26.4330
14.5102,26.4536
14.5135,26.4738
14.5179,26.4935
14.5232,26.5128
14.5295,26.5317
14.5367,26.5502
14.5449,26.5683
14.5541,26.5860
14.5642,26.6032
14.5753,26.6201
14.5874,26.6365
14.6004,26.6525
14.6144,26.6681
14.6294,26.6832
14.6452,26.6977
14.6616,26.7112
14.6787,26.7237
14.6965,26.7354
14.7149,26.7461
14.7339,26.7559
14.7536,26.7647
14.7740,26.7726
14.7950,26.7796
14.8167,26.7857
14.8391,26.7908
14.8620,26.7950
14.8857,26.7982
14.9100,26.8006
14.9350,26.8020
14.9606,26.8024
14.9858,26.8020
15.0105,26.8006
15.0347,26.7983
15.0584,26.7950
15.0816,26.7908
15.1043,26.7857
15.1264,26.7797
15.1481,26.7727
15.1692,26.7649
15.1899,26.7561
15.2034,26.7497
15.2233,26.7393
15.2426,26.7282
15.2614,26.7164
15.2796,26.7038
15.2973,26.6904
15.3144,26.6763
15.3310,26.6615
15.3470,26.6459
15.3625,26.6296
15.3774,26.6125
15.3870,26.6007
15.4012,26.5821
15.4152,26.5624
15.4289,26.5415
15.4423,26.5194
15.4556,26.4961
15.4686,26.4716
15.4814,26.4460
15.4898,26.4282
15.4981,26.4099
15.5063,26.3911
15.5143,26.3718
15.5223,26.3519
15.5263,26.3418
15.5341,26.3213
15.5419,26.3009
15.5495,26.2805
15.5570,26.2601
15.5644,26.2396
15.5717,26.2193
15.5788,26.1989
15.5859,26.1785
15.5928,26.1581
15.5995,26.1378
15.6062,26.1175
15.6127,26.0971
15.6191,26.0768
15.6254,26.0565
15.6316,26.0362
15.6376,26.0160
15.8027,25.4464
15.8102,25.4203
15.8172,25.3955
15.8237,25.3717
15.8297,25.3491
15.8352,25.3277
15.8403,25.3075
15.8448,25.2884
15.8508,25.2619
15.8556,25.2380
15.8594,25.2167
15.8628,25.1924
15.8642,25.1726
15.8643,25.1684
15.8617,25.1465
15.8538,25.1263
15.8426,25.1099
15.8274,25.0949
15.8223,25.0908
15.8037,25.0796
15.7835,25.0716
15.7644,25.0661
15.7425,25.0614
15.7179,25.0575
15.6977,25.0551
15.6760,25.0532
15.6528,25.0517
15.6679,24.9892
16.2600,24.9892
16.2448,25.0517
16.2197,25.0520
16.1964,25.0529
16.1749,25.0545
16.1552,25.0567
16.1331,25.0603
16.1138,25.0649
16.0944,25.0717
16.0748,25.0820
16.0564,25.0953
16.0416,25.1092
16.0275,25.1252
16.0143,25.1435
16.0034,25.1619
15.9944,25.1801
15.9851,25.2013
15.9756,25.2256
15.9683,25.2458
15.9608,25.2677
15.9532,25.2914
15.9455,25.3167
15.9376,25.3438
15.7353,26.0335
15.7292,26.0544
15.7232,26.0749
15.7171,26.0950
15.7111,26.1148
15.7051,26.1342
15.6991,26.1533
15.6931,26.1720
15.6813,26.2084
15.6695,26.2435
15.6578,26.2771
15.6462,26.3093
15.6347,26.3402
15.6233,26.3696
15.6119,26.3977
15.6007,26.4243
15.5895,26.4495
15.5785,26.4734
15.5675,26.4959
15.5566,26.5169
15.5512,26.5269
15.5401,26.5464
15.5283,26.5654
15.5160,26.5841
15.5031,26.6024
15.4896,26.6202
15.4754,26.6377
15.4607,26.6547
15.4453,26.6714
15.4293,26.6876
15.4128,26.7035
15.3956,26.7190
15.3778,26.7340
15.3594,26.7487
15.3404,26.7629
15.3208,26.7768
15.3006,26.7902
15.2798,26.8030
15.2583,26.8151
15.2363,26.8262
15.2136,26.8366
15.1903,26.8461
15.1664,26.8548
15.1418,26.8627
15.1167,26.8697
15.0909,26.8759
15.0645,26.8813
15.0375,26.8859
15.0099,26.8896
14.9816,26.8925
14.9528,26.8946
14.9233,26.8958
14.8932,26.8962
14.8586,26.8956
14.8248,26.8938
14.7919,26.8907
14.7598,26.8865
14.7285,26.8810
14.6981,26.8743
14.6686,26.8664
14.6399,26.8573
14.6121,26.8469
14.5851,26.8353
14.5589,26.8226
14.5336,26.8086
14.5091,26.7933
14.4855,26.7769
14.4628,26.7593
14.4409,26.7404
14.4201,26.7207
14.4007,26.7006
14.3826,26.6802
14.3658,26.6594
14.3504,26.6383
14.3364,26.6168
14.3236,26.5950
14.3123,26.5728
14.3022,26.5503
14.2935,26.5274
14.2861,26.5042
14.2801,26.4806
14.2754,26.4567
14.2721,26.4324
14.2701,26.4078
14.2694,26.3828
14.2696,26.3626
14.2703,26.3421
14.2715,26.3213
14.2732,26.3001
14.2753,26.2787
14.2779,26.2569
14.2810,26.2348
14.2845,26.2123
14.2888,26.1913
14.2933,26.1713
14.2988,26.1486
14.3053,26.1232
14.3108,26.1023
14.3168,26.0798
14.3234,26.0559
14.3306,26.0303
14.3383,26.0033
14.5224,25.3692
14.5292,25.3441
14.5354,25.3203
14.5408,25.2977
14.5456,25.2764
14.5498,25.2564
14.5542,25.2317
14.5575,25.2092
14.5596,25.1890
14.5605,25.1670
14.5587,25.1458
14.5530,25.1269
14.5421,25.1080
14.5284,25.0938
14.5215,25.0883
14.5026,25.0784
14.4806,25.0712
14.4587,25.0662
14.4332,25.0617
14.4116,25.0588
14.3879,25.0563
14.3622,25.0541
14.3343,25.0522
14.3246,25.0517
Z" /> 
<path style="fill:#828282; fill-opacity:1.0000; 
stroke:#828282; stroke-width:0.0000; stroke-opacity:1; 
stroke-linecap:round; stroke-linejoin:round;fill-rule:evenodd;"
d="M 16.3889,26.2187
16.4085,26.2201
16.4282,26.2251
16.4472,26.2346
16.4504,26.2368
16.4649,26.2502
16.4742,26.2685
16.4758,26.2812
16.4715,26.3007
16.4600,26.3167
16.4499,26.3252
16.4312,26.3357
16.4122,26.3415
16.3911,26.3437
16.3889,26.3437
16.3675,26.3419
16.3481,26.3365
16.3306,26.3274
16.3273,26.3252
16.3128,26.3116
16.3035,26.2935
16.3019,26.2812
16.3060,26.2611
16.3171,26.2451
16.3268,26.2368
16.3456,26.2265
16.3650,26.2208
16.3866,26.2187
Z" /> 
<path style="fill:#828282; fill-opacity:1.0000; 
stroke:#828282; stroke-width:0.0000; stroke-opacity:1; 
stroke-linecap:round; stroke-linejoin:round;fill-rule:evenodd;"
d="M 16.4001,26.5001
16.2281,27.1322
16.2222,27.1543
16.2168,27.1757
16.2123,27.1959
16.2106,27.2088
16.2184,27.2274
16.2189,27.2279
16.2370,27.2352
16.2384,27.2352
16.2578,27.2302
16.2697,27.2235
16.2852,27.2112
16.3009,27.1972
16.3165,27.1814
16.3321,27.1640
16.3447,27.1488
16.3572,27.1325
16.3698,27.1151
16.4001,27.1351
16.3888,27.1512
16.3732,27.1716
16.3570,27.1910
16.3401,27.2092
16.3225,27.2263
16.3043,27.2424
16.2854,27.2572
16.2659,27.2710
16.2609,27.2743
16.2425,27.2854
16.2245,27.2947
16.2031,27.3032
16.1821,27.3091
16.1615,27.3123
16.1480,27.3129
16.1270,27.3114
16.1067,27.3064
16.0894,27.2977
16.0749,27.2838
16.0673,27.2648
16.0669,27.2592
16.0683,27.2387
16.0718,27.2161
16.0764,27.1932
16.0815,27.1717
16.0876,27.1479
16.0889,27.1429
16.2018,26.7189
16.2083,26.6957
16.2139,26.6748
16.2198,26.6519
16.2243,26.6326
16.2283,26.6114
16.2296,26.5973
16.2253,26.5776
16.2159,26.5655
16.1978,26.5556
16.1793,26.5533
16.1589,26.5546
16.1390,26.5569
16.1175,26.5599
16.0997,26.5626
16.0997,26.5313
Z" /> 
</g></g>
</g>
<g style="fill:#828282; fill-opacity:1.0000; 
stroke:#828282; stroke-width:0.1524; stroke-opacity:1; 
stroke-linecap:round; stroke-linejoin:round;">
<g >
</g>
<g style="fill:#A54B4B; fill-opacity:1.0000; 
stroke:#A54B4B; stroke-width:0.1524; stroke-opacity:1; 
stroke-linecap:round; stroke-linejoin:round;">
</g>
<g style="fill:#A54B4B; fill-opacity:0.0; 
stroke:#A54B4B; stroke-width:0.2540; stroke-opacity:1; 
stroke-linecap:round; stroke-linejoin:round;">
<rect x="33.274000" y="29.845000" width="2.032000" height="5.080000" rx="0.000000" />
</g>
<g style="fill:#A54B50; fill-opacity:0.0; 
stroke:#A54B50; stroke-width:0.2540; stroke-opacity:1; 
stroke-linecap:round; stroke-linejoin:round;">
</g>
<g style="fill:#A54B50; fill-opacity:0.0; 
stroke:#A54B50; stroke-width:0.1524; stroke-opacity:1; 
stroke-linecap:round; stroke-linejoin:round;">
<path d="M34.2900 29.8450
L34.2900 28.5750
" />
<path d="M34.2900 34.9250
L34.2900 36.1950
" />
</g>
<g style="fill:#828282; fill-opacity:0.0; 
stroke:#828282; stroke-width:0.1524; stroke-opacity:1; 
stroke-linecap:round; stroke-linejoin:round;">
<text x="38.4625" y="33.3850"
textLength="3.2650" font-size="2.6666" lengthAdjust="spacingAndGlyphs"
text-anchor="middle" opacity="0">R2</text>
<g class="stroked-text"><desc>R2</desc>
</g>
<g style="fill:#828282; fill-opacity:1.0000; 
stroke:#828282; stroke-width:0.0000; stroke-opacity:1; 
stroke-linecap:round; stroke-linejoin:round;">
<path style="fill:#828282; fill-opacity:1.0000; 
stroke:#828282; stroke-width:0.0000; stroke-opacity:1; 
stroke-linecap:round; stroke-linejoin:round;fill-rule:evenodd;"
d="M 37.5933,31.3393
37.6285,31.3398
37.6625,31.3407
37.6953,31.3419
37.7269,31.3434
37.7573,31.3453
37.7864,31.3475
37.8144,31.3500
37.8411,31.3529
37.8666,31.3561
37.8909,31.3597
37.9139,31.3636
37.9358,31.3679
37.9564,31.3725
37.9758,31.3774
37.9940,31.3826
38.0201,31.3913
38.0454,31.4013
38.0700,31.4126
38.0938,31.4251
38.1169,31.4389
38.1392,31.4540
38.1608,31.4704
38.1816,31.4881
38.2016,31.5070
38.2209,31.5272
38.2334,31.5414
38.2509,31.5635
38.2667,31.5864
38.2808,31.6101
38.2932,31.6345
38.3038,31.6598
38.3128,31.6859
38.3200,31.7127
38.3254,31.7403
38.3292,31.7688
38.3312,31.7980
38.3316,31.8179
38.3311,31.8391
38.3298,31.8600
38.3276,31.8806
38.3246,31.9008
38.3206,31.9206
38.3158,31.9401
38.3101,31.9592
38.3036,31.9780
38.2962,31.9964
38.2879,32.0145
38.2787,32.0322
38.2686,32.0495
38.2577,32.0665
38.2459,32.0832
38.2332,32.0994
38.2197,32.1154
38.2052,32.1308
38.1898,32.1457
38.1734,32.1600
38.1561,32.1738
38.1378,32.1869
38.1185,32.1995
38.0982,32.2115
38.0771,32.2230
38.0549,32.2338
38.0318,32.2441
38.0077,32.2538
37.9827,32.2629
37.9566,32.2715
37.9297,32.2794
37.9018,32.2868
37.8729,32.2937
38.2573,32.8349
38.2736,32.8577
38.2897,32.8795
38.3055,32.9003
38.3209,32.9202
38.3361,32.9391
38.3510,32.9570
38.3656,32.9739
38.3799,32.9899
38.3939,33.0049
38.4077,33.0189
38.4277,33.0381
38.4471,33.0551
38.4659,33.0699
38.4840,33.0826
38.5022,33.0936
38.5215,33.1039
38.5419,33.1134
38.5632,33.1221
38.5856,33.1300
38.6090,33.1372
38.6334,33.1436
38.6588,33.1492
38.6853,33.1540
38.7127,33.1580
38.7316,33.1602
38.7316,33.2150
38.2339,33.2150
37.6032,32.3293
37.5820,32.3300
37.5621,32.3306
37.5398,32.3312
37.5194,32.3315
37.4979,32.3317
37.4894,32.3318
37.4695,32.3316
37.4508,32.3313
37.4313,32.3306
37.4111,32.3295
37.4083,32.3293
37.4083,32.8774
37.4085,32.8992
37.4089,32.9199
37.4097,32.9395
37.4114,32.9670
37.4137,32.9922
37.4168,33.0149
37.4205,33.0353
37.4266,33.0588
37.4338,33.0781
37.4445,33.0963
37.4469,33.0992
37.4608,33.1135
37.4763,33.1259
37.4934,33.1364
37.5121,33.1450
37.5325,33.1517
37.5544,33.1564
37.5780,33.1593
37.6032,33.1602
37.6765,33.1602
37.6765,33.2150
36.8778,33.2150
36.8778,33.1602
36.9482,33.1602
36.9697,33.1596
36.9901,33.1575
37.0155,33.1527
37.0387,33.1455
37.0598,33.1358
37.0788,33.1238
37.0958,33.1093
37.1106,33.0924
37.1172,33.0831
37.1270,33.0630
37.1336,33.0399
37.1379,33.0173
37.1412,32.9911
37.1432,32.9690
37.1446,32.9448
37.1455,32.9186
37.1460,32.8902
37.1460,32.8803
37.1460,32.2443
37.4083,32.2443
37.4285,32.2445
37.4489,32.2451
37.4537,32.2453
37.4741,32.2457
37.4855,32.2458
37.5183,32.2453
37.5500,32.2440
37.5807,32.2417
37.6104,32.2386
37.6391,32.2345
37.6668,32.2295
37.6934,32.2236
37.7190,32.2169
37.7436,32.2092
37.7671,32.2006
37.7897,32.1911
37.8112,32.1807
37.8317,32.1694
37.8512,32.1572
37.8696,32.1440
37.8870,32.1300
37.9034,32.1153
37.9187,32.1001
37.9330,32.0844
37.9462,32.0682
37.9584,32.0515
37.9695,32.0343
37.9795,32.0166
37.9885,31.9984
37.9964,31.9797
38.0033,31.9605
38.0091,31.9408
38.0139,31.9206
38.0176,31.9000
38.0202,31.8788
38.0218,31.8571
38.0223,31.8350
38.0219,31.8134
38.0206,31.7923
38.0185,31.7717
38.0155,31.7516
38.0117,31.7321
38.0070,31.7130
37.9983,31.6854
37.9877,31.6590
37.9752,31.6336
37.9608,31.6095
37.9444,31.5865
37.9262,31.5646
37.9129,31.5507
37.8919,31.5310
37.8696,31.5133
37.8460,31.4975
37.8213,31.4837
37.7952,31.4718
37.7680,31.4618
37.7491,31.4562
37.7297,31.4515
37.7097,31.4476
37.6891,31.4446
37.6681,31.4425
37.6464,31.4412
37.6242,31.4408
37.6034,31.4413
37.5809,31.4427
37.5565,31.4452
37.5371,31.4476
37.5167,31.4507
37.4953,31.4542
37.4729,31.4584
37.4495,31.4630
37.4251,31.4682
37.4083,31.4720
37.4083,32.2443
37.1460,32.2443
37.1460,31.6738
37.1458,31.6523
37.1454,31.6318
37.1442,31.6030
37.1422,31.5766
37.1396,31.5525
37.1364,31.5308
37.1324,31.5114
37.1261,31.4892
37.1185,31.4711
37.1074,31.4544
37.0932,31.4403
37.0773,31.4279
37.0598,31.4175
37.0407,31.4090
37.0200,31.4024
36.9977,31.3977
36.9737,31.3948
36.9482,31.3939
36.8778,31.3939
36.8778,31.3392
37.5568,31.3392
Z" /> 
<path style="fill:#828282; fill-opacity:1.0000; 
stroke:#828282; stroke-width:0.0000; stroke-opacity:1; 
stroke-linecap:round; stroke-linejoin:round;fill-rule:evenodd;"
d="M 39.9861,32.8398
39.8556,33.2150
38.7565,33.2150
38.7565,33.1641
38.7866,33.1366
38.8160,33.1093
38.8450,33.0823
38.8733,33.0557
38.9011,33.0294
38.9283,33.0034
38.9550,32.9777
38.9811,32.9523
39.0067,32.9273
39.0317,32.9026
39.0561,32.8782
39.0799,32.8541
39.1032,32.8303
39.1260,32.8068
39.1482,32.7837
39.1698,32.7609
39.1909,32.7384
39.2114,32.7162
39.2313,32.6944
39.2507,32.6728
39.2695,32.6516
39.2877,32.6307
39.3054,32.6101
39.3226,32.5899
39.3391,32.5699
39.3552,32.5503
39.3706,32.5310
39.3855,32.5120
39.3998,32.4933
39.4136,32.4750
39.4268,32.4569
39.4394,32.4392
39.4516,32.4217
39.4634,32.4043
39.4748,32.3870
39.4858,32.3698
39.4964,32.3526
39.5067,32.3356
39.5165,32.3186
39.5351,32.2850
39.5521,32.2518
39.5675,32.2189
39.5814,32.1864
39.5938,32.1543
39.6046,32.1226
39.6139,32.0912
39.6216,32.0602
39.6278,32.0296
39.6324,31.9993
39.6355,31.9695
39.6371,31.9400
39.6373,31.9253
39.6369,31.9034
39.6356,31.8819
39.6334,31.8609
39.6305,31.8404
39.6266,31.8204
39.6220,31.8009
39.6164,31.7819
39.6100,31.7634
39.5989,31.7366
39.5858,31.7109
39.5708,31.6863
39.5539,31.6628
39.5350,31.6404
39.5283,31.6332
39.5076,31.6128
39.4862,31.5944
39.4640,31.5780
39.4410,31.5636
39.4173,31.5512
39.3929,31.5408
39.3677,31.5324
39.3418,31.5261
39.3151,31.5217
39.2877,31.5194
39.2690,31.5189
39.2435,31.5196
39.2185,31.5218
39.1940,31.5254
39.1699,31.5304
39.1464,31.5369
39.1233,31.5447
39.1008,31.5541
39.0787,31.5648
39.0571,31.5770
39.0361,31.5906
39.0223,31.6005
39.0023,31.6165
38.9833,31.6338
38.9653,31.6524
38.9483,31.6723
38.9324,31.6936
38.9174,31.7162
38.9035,31.7402
38.8906,31.7655
38.8787,31.7921
38.8713,31.8105
38.8644,31.8296
38.8611,31.8394
38.8098,31.8394
38.8145,31.8077
38.8201,31.7770
38.8266,31.7472
38.8338,31.7184
38.8420,31.6905
38.8509,31.6635
38.8607,31.6375
38.8713,31.6124
38.8828,31.5882
38.8951,31.5649
38.9083,31.5426
38.9223,31.5213
38.9371,31.5008
38.9528,31.4814
38.9693,31.4628
38.9866,31.4452
39.0047,31.4285
39.0233,31.4130
39.0424,31.3985
39.0621,31.3851
39.0824,31.3728
39.1032,31.3615
39.1246,31.3513
39.1465,31.3422
39.1689,31.3342
39.1920,31.3272
39.2155,31.3213
39.2397,31.3165
39.2644,31.3127
39.2896,31.3100
39.3154,31.3084
39.3417,31.3079
39.3698,31.3085
39.3972,31.3102
39.4241,31.3130
39.4504,31.3170
39.4761,31.3222
39.5012,31.3284
39.5258,31.3359
39.5497,31.3444
39.5731,31.3541
39.5959,31.3650
39.6181,31.3769
39.6397,31.3901
39.6607,31.4043
39.6812,31.4197
39.7010,31.4363
39.7203,31.4540
39.7387,31.4724
39.7559,31.4912
39.7719,31.5104
39.7868,31.5300
39.8004,31.5500
39.8129,31.5705
39.8242,31.5913
39.8343,31.6126
39.8432,31.6343
39.8509,31.6563
39.8574,31.6788
39.8627,31.7017
39.8669,31.7250
39.8699,31.7487
39.8716,31.7728
39.8722,31.7974
39.8717,31.8239
39.8699,31.8505
39.8670,31.8771
39.8630,31.9037
39.8577,31.9303
39.8514,31.9569
39.8438,31.9835
39.8351,32.0101
39.8253,32.0368
39.8143,32.0634
39.8063,32.0812
39.7930,32.1091
39.7788,32.1373
39.7636,32.1656
39.7474,32.1942
39.7302,32.2229
39.7121,32.2519
39.6929,32.2810
39.6728,32.3104
39.6517,32.3400
39.6296,32.3697
39.6066,32.3997
39.5825,32.4299
39.5701,32.4450
39.5575,32.4602
39.5446,32.4755
39.5315,32.4908
39.5181,32.5062
39.5045,32.5216
39.4907,32.5370
39.4766,32.5526
39.4554,32.5757
39.4348,32.5982
39.4146,32.6201
39.3950,32.6415
39.3758,32.6622
39.3572,32.6824
39.3391,32.7021
39.3214,32.7211
39.3043,32.7395
39.2877,32.7574
39.2716,32.7747
39.2559,32.7914
39.2408,32.8076
39.2262,32.8231
39.2121,32.8381
39.1985,32.8525
39.1728,32.8795
39.1491,32.9043
39.1274,32.9267
39.1077,32.9468
39.0901,32.9645
39.0744,32.9800
39.0547,32.9988
39.0491,33.0039
39.5352,33.0039
39.5622,33.0038
39.5877,33.0035
39.6117,33.0030
39.6341,33.0023
39.6549,33.0013
39.6802,32.9998
39.7027,32.9979
39.7225,32.9956
39.7433,32.9922
39.7654,32.9868
39.7866,32.9796
39.8070,32.9707
39.8265,32.9601
39.8452,32.9478
39.8512,32.9434
39.8689,32.9285
39.8830,32.9146
39.8964,32.8991
39.9092,32.8822
39.9214,32.8638
39.9330,32.8439
39.9353,32.8398
Z" /> 
</g></g>
</g>
<g style="fill:#828282; fill-opacity:1.0000; 
stroke:#828282; stroke-width:0.1524; stroke-opacity:1; 
stroke-linecap:round; stroke-linejoin:round;">
<g >
</g>
<g style="fill:#A54B4B; fill-opacity:1.0000; 
stroke:#A54B4B; stroke-width:0.1524; stroke-opacity:1; 
stroke-linecap:round; stroke-linejoin:round;">
</g>
<g style="fill:#A54B4B; fill-opacity:0.0; 
stroke:#A54B4B; stroke-width:0.2540; stroke-opacity:1; 
stroke-linecap:round; stroke-linejoin:round;">
<rect x="33.274000" y="17.145000" width="2.032000" height="5.080000" rx="0.000000" />
</g>
<g style="fill:#A54B50; fill-opacity:0.0; 
stroke:#A54B50; stroke-width:0.2540; stroke-opacity:1; 
stroke-linecap:round; stroke-linejoin:round;">
</g>
<g style="fill:#A54B50; fill-opacity:0.0; 
stroke:#A54B50; stroke-width:0.1524; stroke-opacity:1; 
stroke-linecap:round; stroke-linejoin:round;">
<path d="M34.2900 17.1450
L34.2900 15.8750
" />
<path d="M34.2900 22.2250
L34.2900 23.4950
" />
</g>
<g style="fill:#828282; fill-opacity:0.0; 
stroke:#828282; stroke-width:0.1524; stroke-opacity:1; 
stroke-linecap:round; stroke-linejoin:round;">
<text x="38.4625" y="20.6850"
textLength="3.2650" font-size="2.6666" lengthAdjust="spacingAndGlyphs"
text-anchor="middle" opacity="0">R1</text>
<g class="stroked-text"><desc>R1</desc>
</g>
<g style="fill:#828282; fill-opacity:1.0000; 
stroke:#828282; stroke-width:0.0000; stroke-opacity:1; 
stroke-linecap:round; stroke-linejoin:round;">
<path style="fill:#828282; fill-opacity:1.0000; 
stroke:#828282; stroke-width:0.0000; stroke-opacity:1; 
stroke-linecap:round; stroke-linejoin:round;fill-rule:evenodd;"
d="M 37.5933,18.6393
37.6285,18.6398
37.6625,18.6407
37.6953,18.6419
37.7269,18.6434
37.7573,18.6453
37.7864,18.6475
37.8144,18.6500
37.8411,18.6529
37.8666,18.6561
37.8909,18.6597
37.9139,18.6636
37.9358,18.6679
37.9564,18.6725
37.9758,18.6774
37.9940,18.6826
38.0201,18.6913
38.0454,18.7013
38.0700,18.7126
38.0938,18.7251
38.1169,18.7389
38.1392,18.7540
38.1608,18.7704
38.1816,18.7881
38.2016,18.8070
38.2209,18.8272
38.2334,18.8414
38.2509,18.8635
38.2667,18.8864
38.2808,18.9101
38.2932,18.9345
38.3038,18.9598
38.3128,18.9859
38.3200,19.0127
38.3254,19.0403
38.3292,19.0688
38.3312,19.0980
38.3316,19.1179
38.3311,19.1391
38.3298,19.1600
38.3276,19.1806
38.3246,19.2008
38.3206,19.2206
38.3158,19.2401
38.3101,19.2592
38.3036,19.2780
38.2962,19.2964
38.2879,19.3145
38.2787,19.3322
38.2686,19.3495
38.2577,19.3665
38.2459,19.3832
38.2332,19.3994
38.2197,19.4154
38.2052,19.4308
38.1898,19.4457
38.1734,19.4600
38.1561,19.4738
38.1378,19.4869
38.1185,19.4995
38.0982,19.5115
38.0771,19.5230
38.0549,19.5338
38.0318,19.5441
38.0077,19.5538
37.9827,19.5629
37.9566,19.5715
37.9297,19.5794
37.9018,19.5868
37.8729,19.5937
38.2573,20.1349
38.2736,20.1577
38.2897,20.1795
38.3055,20.2003
38.3209,20.2202
38.3361,20.2391
38.3510,20.2570
38.3656,20.2739
38.3799,20.2899
38.3939,20.3049
38.4077,20.3189
38.4277,20.3381
38.4471,20.3551
38.4659,20.3699
38.4840,20.3826
38.5022,20.3936
38.5215,20.4039
38.5419,20.4134
38.5632,20.4221
38.5856,20.4300
38.6090,20.4372
38.6334,20.4436
38.6588,20.4492
38.6853,20.4540
38.7127,20.4580
38.7316,20.4602
38.7316,20.5150
38.2339,20.5150
37.6032,19.6293
37.5820,19.6300
37.5621,19.6306
37.5398,19.6312
37.5194,19.6315
37.4979,19.6317
37.4894,19.6318
37.4695,19.6316
37.4508,19.6313
37.4313,19.6306
37.4111,19.6295
37.4083,19.6293
37.4083,20.1774
37.4085,20.1992
37.4089,20.2199
37.4097,20.2395
37.4114,20.2670
37.4137,20.2922
37.4168,20.3149
37.4205,20.3353
37.4266,20.3588
37.4338,20.3781
37.4445,20.3963
37.4469,20.3992
37.4608,20.4135
37.4763,20.4259
37.4934,20.4364
37.5121,20.4450
37.5325,20.4517
37.5544,20.4564
37.5780,20.4593
37.6032,20.4602
37.6765,20.4602
37.6765,20.5150
36.8778,20.5150
36.8778,20.4602
36.9482,20.4602
36.9697,20.4596
36.9901,20.4575
37.0155,20.4527
37.0387,20.4455
37.0598,20.4358
37.0788,20.4238
37.0958,20.4093
37.1106,20.3924
37.1172,20.3831
37.1270,20.3630
37.1336,20.3399
37.1379,20.3173
37.1412,20.2911
37.1432,20.2690
37.1446,20.2448
37.1455,20.2186
37.1460,20.1902
37.1460,20.1803
37.1460,19.5443
37.4083,19.5443
37.4285,19.5445
37.4489,19.5451
37.4537,19.5453
37.4741,19.5457
37.4855,19.5458
37.5183,19.5453
37.5500,19.5440
37.5807,19.5417
37.6104,19.5386
37.6391,19.5345
37.6668,19.5295
37.6934,19.5236
37.7190,19.5169
37.7436,19.5092
37.7671,19.5006
37.7897,19.4911
37.8112,19.4807
37.8317,19.4694
37.8512,19.4572
37.8696,19.4440
37.8870,19.4300
37.9034,19.4153
37.9187,19.4001
37.9330,19.3844
37.9462,19.3682
37.9584,19.3515
37.9695,19.3343
37.9795,19.3166
37.9885,19.2984
37.9964,19.2797
38.0033,19.2605
38.0091,19.2408
38.0139,19.2206
38.0176,19.2000
38.0202,19.1788
38.0218,19.1571
38.0223,19.1350
38.0219,19.1134
38.0206,19.0923
38.0185,19.0717
38.0155,19.0516
38.0117,19.0321
38.0070,19.0130
37.9983,18.9854
37.9877,18.9590
37.9752,18.9336
37.9608,18.9095
37.9444,18.8865
37.9262,18.8646
37.9129,18.8507
37.8919,18.8310
37.8696,18.8133
37.8460,18.7975
37.8213,18.7837
37.7952,18.7718
37.7680,18.7618
37.7491,18.7562
37.7297,18.7515
37.7097,18.7476
37.6891,18.7446
37.6681,18.7425
37.6464,18.7412
37.6242,18.7408
37.6034,18.7413
37.5809,18.7427
37.5565,18.7452
37.5371,18.7476
37.5167,18.7507
37.4953,18.7542
37.4729,18.7584
37.4495,18.7630
37.4251,18.7682
37.4083,18.7720
37.4083,19.5443
37.1460,19.5443
37.1460,18.9738
37.1458,18.9523
37.1454,18.9318
37.1442,18.9030
37.1422,18.8766
37.1396,18.8525
37.1364,18.8308
37.1324,18.8114
37.1261,18.7892
37.1185,18.7711
37.1074,18.7544
37.0932,18.7403
37.0773,18.7279
37.0598,18.7175
37.0407,18.7090
37.0200,18.7024
36.9977,18.6977
36.9737,18.6948
36.9482,18.6939
36.8778,18.6939
36.8778,18.6392
37.5568,18.6392
Z" /> 
<path style="fill:#828282; fill-opacity:1.0000; 
stroke:#828282; stroke-width:0.0000; stroke-opacity:1; 
stroke-linecap:round; stroke-linejoin:round;fill-rule:evenodd;"
d="M 39.0257,18.8292
39.4790,18.6079
39.5244,18.6079
39.5244,20.1823
39.5245,20.2107
39.5249,20.2369
39.5254,20.2611
39.5262,20.2833
39.5272,20.3033
39.5289,20.3268
39.5310,20.3466
39.5342,20.3662
39.5371,20.3777
39.5455,20.3959
39.5573,20.4118
39.5726,20.4254
39.5914,20.4368
39.6099,20.4439
39.6299,20.4488
39.6541,20.4529
39.6765,20.4556
39.7015,20.4577
39.7219,20.4589
39.7439,20.4598
39.7594,20.4602
39.7594,20.5150
39.0589,20.5150
39.0589,20.4602
39.0828,20.4595
39.1051,20.4586
39.1257,20.4573
39.1506,20.4551
39.1726,20.4524
39.1959,20.4484
39.2179,20.4424
39.2289,20.4378
39.2467,20.4269
39.2633,20.4126
39.2761,20.3962
39.2826,20.3840
39.2885,20.3629
39.2919,20.3399
39.2940,20.3167
39.2953,20.2967
39.2963,20.2742
39.2971,20.2494
39.2975,20.2222
39.2978,20.1927
39.2978,20.1823
39.2978,19.1760
39.2977,19.1511
39.2976,19.1274
39.2973,19.1048
39.2969,19.0833
39.2964,19.0630
39.2955,19.0346
39.2944,19.0088
39.2930,18.9856
39.2913,18.9650
39.2888,18.9414
39.2849,18.9184
39.2841,18.9147
39.2782,18.8942
39.2693,18.8746
39.2579,18.8587
39.2489,18.8502
39.2321,18.8391
39.2132,18.8321
39.1923,18.8293
39.1879,18.8292
39.1674,18.8307
39.1441,18.8352
39.1226,18.8413
39.1039,18.8477
39.0840,18.8554
39.0629,18.8645
39.0462,18.8722
Z" /> 
</g></g>
</g>
<g style="fill:#828282; fill-opacity:1.0000; 
stroke:#828282; stroke-width:0.2500; stroke-opacity:1; 
stroke-linecap:round; stroke-linejoin:round;">
</g>
<g style="fill:#828282; fill-opacity:1.0000; 
stroke:#828282; stroke-width:0.1524; stroke-opacity:1; 
stroke-linecap:round; stroke-linejoin:round;">
</g>
<g style="fill:#969696; fill-opacity:0.0; 
stroke:#969696; stroke-width:0.1524; stroke-opacity:1; 
stroke-linecap:round; stroke-linejoin:round;">
<text x="52.0700" y="32.3195"
textLength="2.9152" font-size="2.6666" lengthAdjust="spacingAndGlyphs"
text-anchor="start" opacity="0">U_{o}</text>
<g class="stroked-text"><desc>U_{o}</desc>
</g>
<g style="fill:#969696; fill-opacity:1.0000; 
stroke:#969696; stroke-width:0.0000; stroke-opacity:1; 
stroke-linecap:round; stroke-linejoin:round;">
<path style="fill:#969696; fill-opacity:1.0000; 
stroke:#969696; stroke-width:0.0000; stroke-opacity:1; 
stroke-linecap:round; stroke-linejoin:round;fill-rule:evenodd;"
d="M 52.4383,30.1037
53.2252,30.1037
53.2101,30.1662
53.1881,30.1669
53.1673,30.1679
53.1477,30.1692
53.1234,30.1714
53.1013,30.1741
53.0814,30.1774
53.0595,30.1822
53.0376,30.1891
53.0189,30.1976
53.0012,30.2083
52.9846,30.2212
52.9689,30.2363
52.9543,30.2537
52.9497,30.2600
52.9383,30.2780
52.9291,30.2954
52.9197,30.3156
52.9102,30.3385
52.9030,30.3574
52.8957,30.3779
52.8884,30.3999
52.8810,30.4235
52.8735,30.4485
52.6830,31.1051
52.6768,31.1265
52.6709,31.1470
52.6654,31.1666
52.6577,31.1942
52.6507,31.2196
52.6444,31.2430
52.6388,31.2642
52.6340,31.2833
52.6287,31.3054
52.6238,31.3278
52.6224,31.3351
52.6185,31.3578
52.6152,31.3800
52.6123,31.4019
52.6100,31.4233
52.6082,31.4444
52.6069,31.4650
52.6061,31.4853
52.6058,31.5051
52.6063,31.5265
52.6077,31.5475
52.6102,31.5681
52.6135,31.5883
52.6179,31.6080
52.6232,31.6273
52.6295,31.6462
52.6367,31.6647
52.6449,31.6828
52.6541,31.7005
52.6642,31.7177
52.6753,31.7346
52.6874,31.7510
52.7004,31.7670
52.7144,31.7826
52.7294,31.7977
52.7452,31.8122
52.7616,31.8257
52.7787,31.8382
52.7965,31.8499
52.8149,31.8606
52.8339,31.8704
52.8536,31.8792
52.8740,31.8871
52.8950,31.8941
52.9167,31.9002
52.9391,31.9053
52.9620,31.9095
52.9857,31.9127
53.0100,31.9151
53.0350,31.9165
53.0606,31.9169
53.0858,31.9165
53.1105,31.9151
53.1347,31.9128
53.1584,31.9095
53.1816,31.9053
53.2043,31.9002
53.2264,31.8942
53.2481,31.8872
53.2692,31.8794
53.2899,31.8706
53.3034,31.8642
53.3233,31.8538
53.3426,31.8427
53.3614,31.8309
53.3796,31.8183
53.3973,31.8049
53.4144,31.7908
53.4310,31.7760
53.4470,31.7604
53.4625,31.7441
53.4774,31.7270
53.4870,31.7152
53.5012,31.6966
53.5152,31.6769
53.5289,31.6560
53.5423,31.6339
53.5556,31.6106
53.5686,31.5861
53.5814,31.5605
53.5898,31.5427
53.5981,31.5244
53.6063,31.5056
53.6143,31.4863
53.6223,31.4664
53.6263,31.4563
53.6341,31.4358
53.6419,31.4154
53.6495,31.3950
53.6570,31.3746
53.6644,31.3541
53.6717,31.3338
53.6788,31.3134
53.6859,31.2930
53.6928,31.2726
53.6995,31.2523
53.7062,31.2320
53.7127,31.2116
53.7191,31.1913
53.7254,31.1710
53.7316,31.1507
53.7376,31.1305
53.9027,30.5609
53.9102,30.5348
53.9172,30.5100
53.9237,30.4862
53.9297,30.4636
53.9352,30.4422
53.9403,30.4220
53.9448,30.4029
53.9508,30.3764
53.9556,30.3525
53.9594,30.3312
53.9628,30.3069
53.9642,30.2871
53.9643,30.2829
53.9617,30.2610
53.9538,30.2408
53.9426,30.2244
53.9274,30.2094
53.9223,30.2053
53.9037,30.1941
53.8835,30.1861
53.8644,30.1806
53.8425,30.1759
53.8179,30.1720
53.7977,30.1696
53.7760,30.1677
53.7528,30.1662
53.7679,30.1037
54.3600,30.1037
54.3448,30.1662
54.3197,30.1665
54.2964,30.1674
54.2749,30.1690
54.2552,30.1712
54.2331,30.1748
54.2138,30.1794
54.1944,30.1862
54.1748,30.1965
54.1564,30.2098
54.1416,30.2237
54.1275,30.2397
54.1143,30.2580
54.1034,30.2764
54.0944,30.2946
54.0851,30.3158
54.0756,30.3401
54.0683,30.3603
54.0608,30.3822
54.0532,30.4059
54.0455,30.4312
54.0376,30.4583
53.8353,31.1480
53.8292,31.1689
53.8232,31.1894
53.8171,31.2095
53.8111,31.2293
53.8051,31.2487
53.7991,31.2678
53.7931,31.2865
53.7813,31.3229
53.7695,31.3580
53.7578,31.3916
53.7462,31.4238
53.7347,31.4547
53.7233,31.4841
53.7119,31.5122
53.7007,31.5388
53.6895,31.5640
53.6785,31.5879
53.6675,31.6104
53.6566,31.6314
53.6512,31.6414
53.6401,31.6609
53.6283,31.6799
53.6160,31.6986
53.6031,31.7169
53.5896,31.7347
53.5754,31.7522
53.5607,31.7692
53.5453,31.7859
53.5293,31.8021
53.5128,31.8180
53.4956,31.8335
53.4778,31.8485
53.4594,31.8632
53.4404,31.8774
53.4208,31.8913
53.4006,31.9047
53.3798,31.9175
53.3583,31.9296
53.3363,31.9407
53.3136,31.9511
53.2903,31.9606
53.2664,31.9693
53.2418,31.9772
53.2167,31.9842
53.1909,31.9904
53.1645,31.9958
53.1375,32.0004
53.1099,32.0041
53.0816,32.0070
53.0528,32.0091
53.0233,32.0103
52.9932,32.0107
52.9586,32.0101
52.9248,32.0083
52.8919,32.0052
52.8598,32.0010
52.8285,31.9955
52.7981,31.9888
52.7686,31.9809
52.7399,31.9718
52.7121,31.9614
52.6851,31.9498
52.6589,31.9371
52.6336,31.9231
52.6091,31.9078
52.5855,31.8914
52.5628,31.8738
52.5409,31.8549
52.5201,31.8352
52.5007,31.8151
52.4826,31.7947
52.4658,31.7739
52.4504,31.7528
52.4364,31.7313
52.4236,31.7095
52.4123,31.6873
52.4022,31.6648
52.3935,31.6419
52.3861,31.6187
52.3801,31.5951
52.3754,31.5712
52.3721,31.5469
52.3701,31.5223
52.3694,31.4973
52.3696,31.4771
52.3703,31.4566
52.3715,31.4358
52.3732,31.4146
52.3753,31.3932
52.3779,31.3714
52.3810,31.3493
52.3845,31.3268
52.3888,31.3058
52.3933,31.2858
52.3988,31.2631
52.4053,31.2377
52.4108,31.2168
52.4168,31.1943
52.4234,31.1704
52.4306,31.1448
52.4383,31.1178
52.6224,30.4837
52.6292,30.4586
52.6354,30.4348
52.6408,30.4122
52.6456,30.3909
52.6498,30.3709
52.6542,30.3462
52.6575,30.3237
52.6596,30.3035
52.6605,30.2815
52.6587,30.2603
52.6530,30.2414
52.6421,30.2225
52.6284,30.2083
52.6215,30.2028
52.6026,30.1929
52.5806,30.1857
52.5587,30.1807
52.5332,30.1762
52.5116,30.1733
52.4879,30.1708
52.4622,30.1686
52.4343,30.1667
52.4246,30.1662
Z" /> 
<path style="fill:#969696; fill-opacity:1.0000; 
stroke:#969696; stroke-width:0.0000; stroke-opacity:1; 
stroke-linecap:round; stroke-linejoin:round;fill-rule:evenodd;"
d="M 54.6717,31.6152
54.6922,31.6172
54.7119,31.6206
54.7309,31.6253
54.7552,31.6336
54.7782,31.6443
54.7999,31.6574
54.8204,31.6729
54.8349,31.6861
54.8396,31.6908
54.8529,31.7054
54.8650,31.7209
54.8790,31.7428
54.8907,31.7661
54.8979,31.7845
54.9038,31.8038
54.9084,31.8238
54.9117,31.8446
54.9137,31.8662
54.9143,31.8886
54.9137,31.9131
54.9119,31.9376
54.9088,31.9621
54.9046,31.9865
54.8991,32.0109
54.8924,32.0353
54.8845,32.0596
54.8753,32.0839
54.8649,32.1081
54.8534,32.1323
54.8450,32.1485
54.8316,32.1721
54.8172,32.1948
54.8019,32.2165
54.7856,32.2373
54.7684,32.2572
54.7502,32.2761
54.7310,32.2942
54.7109,32.3112
54.6898,32.3274
54.6677,32.3426
54.6525,32.3522
54.6294,32.3656
54.6064,32.3777
54.5835,32.3885
54.5608,32.3980
54.5381,32.4062
54.5156,32.4130
54.4932,32.4185
54.4710,32.4227
54.4488,32.4256
54.4268,32.4271
54.4122,32.4274
54.3902,32.4267
54.3690,32.4247
54.3486,32.4214
54.3290,32.4167
54.3101,32.4106
54.2920,32.4033
54.2691,32.3914
54.2475,32.3771
54.2322,32.3648
54.2177,32.3512
54.2043,32.3364
54.1922,32.3208
54.1814,32.3045
54.1719,32.2873
54.1637,32.2694
54.1569,32.2507
54.1514,32.2312
54.1483,32.2164
54.2852,32.2164
54.2858,32.2374
54.2878,32.2571
54.2920,32.2801
54.2983,32.3011
54.3066,32.3202
54.3169,32.3374
54.3267,32.3497
54.3432,32.3655
54.3612,32.3780
54.3807,32.3872
54.4018,32.3932
54.4243,32.3959
54.4322,32.3961
54.4550,32.3945
54.4776,32.3894
54.5000,32.3811
54.5220,32.3694
54.5438,32.3544
54.5653,32.3360
54.5795,32.3219
54.5936,32.3063
54.6076,32.2892
54.6214,32.2707
54.6352,32.2506
54.6488,32.2291
54.6623,32.2061
54.6753,32.1823
54.6875,32.1585
54.6988,32.1346
54.7093,32.1107
54.7189,32.0868
54.7278,32.0628
54.7357,32.0387
54.7429,32.0146
54.7492,31.9905
54.7546,31.9663
54.7592,31.9421
54.7630,31.9178
54.7660,31.8935
54.7681,31.8691
54.7693,31.8447
54.7697,31.8202
54.7691,31.7997
54.7666,31.7758
54.7622,31.7538
54.7558,31.7338
54.7475,31.7157
54.7350,31.6965
54.7302,31.6908
54.7145,31.6755
54.6973,31.6634
54.6784,31.6544
54.6579,31.6486
54.6358,31.6460
54.6281,31.6458
54.6043,31.6475
54.5808,31.6525
54.5577,31.6609
54.5350,31.6727
54.5126,31.6878
54.4906,31.7062
54.4761,31.7204
54.4618,31.7361
54.4476,31.7533
54.4336,31.7719
54.4198,31.7920
54.4061,31.8137
54.3926,31.8368
54.3796,31.8607
54.3674,31.8845
54.3561,31.9084
54.3456,31.9322
54.3360,31.9559
54.3271,31.9797
54.3192,32.0035
54.3120,32.0272
54.3057,32.0509
54.3003,32.0746
54.2957,32.0983
54.2919,32.1219
54.2889,32.1456
54.2868,32.1692
54.2856,32.1928
54.2852,32.2164
54.1483,32.2164
54.1472,32.2109
54.1444,32.1898
54.1428,32.1679
54.1425,32.1529
54.1432,32.1287
54.1451,32.1045
54.1483,32.0803
54.1528,32.0561
54.1586,32.0319
54.1657,32.0076
54.1741,31.9834
54.1837,31.9591
54.1947,31.9349
54.2069,31.9106
54.2158,31.8945
54.2301,31.8707
54.2452,31.8478
54.2612,31.8259
54.2780,31.8050
54.2958,31.7850
54.3144,31.7660
54.3339,31.7479
54.3542,31.7308
54.3754,31.7146
54.3975,31.6994
54.4127,31.6898
54.4357,31.6763
54.4585,31.6642
54.4812,31.6534
54.5038,31.6439
54.5262,31.6358
54.5485,31.6290
54.5706,31.6234
54.5926,31.6193
54.6145,31.6164
54.6362,31.6148
54.6505,31.6146
Z" /> 
</g></g>
<g style="fill:#969696; fill-opacity:1.0000; 
stroke:#969696; stroke-width:0.1524; stroke-opacity:1; 
stroke-linecap:round; stroke-linejoin:round;">
</g>
<g style="fill:#969696; fill-opacity:0.0; 
stroke:#969696; stroke-width:0.1524; stroke-opacity:1; 
stroke-linecap:round; stroke-linejoin:round;">
<path d="M50.1650 26.6700
L50.1650 36.8300
" />
<path d="M49.5300 26.0350
L50.8000 26.0350
" />
<path d="M50.8000 36.1950
L50.1650 36.8300
" />
<path d="M49.5300 37.4650
L50.8000 37.4650
" />
<path d="M49.5300 36.1950
L50.1650 36.8300
" />
</g>
<g style="fill:#4BA54B; fill-opacity:0.0; 
stroke:#4BA54B; stroke-width:0.1524; stroke-opacity:1; 
stroke-linecap:round; stroke-linejoin:round;">
<path d="M34.2900 14.6050
L34.2900 15.8750
" />
<path d="M34.2900 23.4950
L34.2900 26.0350
" />
<path d="M20.3200 37.4650
L34.2900 37.4650
" />
<path d="M20.3200 14.6050
L34.2900 14.6050
" />
<path d="M20.3200 20.9550
L20.3200 14.6050
" />
<path d="M20.3200 31.1150
L20.3200 37.4650
" />
<path d="M34.2900 37.4650
L43.1800 37.4650
" />
<path d="M34.2900 37.4650
L34.2900 36.1950
" />
<path d="M34.2900 26.0350
L43.1800 26.0350
" />
<path d="M34.2900 26.0350
L34.2900 28.5750
" />
</g>
<g style="fill:#449644; fill-opacity:0.0; 
stroke:#449644; stroke-width:0.1524; stroke-opacity:1; 
stroke-linecap:round; stroke-linejoin:round;">
</g>
<g style="fill:#449644; fill-opacity:1.0000; 
stroke:#449644; stroke-width:0.1524; stroke-opacity:1; 
stroke-linecap:round; stroke-linejoin:round;">
<circle cx="34.2900" cy="37.4650" r="0.4572" /> 
<circle cx="34.2900" cy="26.0350" r="0.4572" /> 
</g> 
</svg>